# xmcd
#
# Track frame offsets: 
#        150
#        14037
#        14602
#        22684
#        23210
#        33306
#        34043
#        43860
#        55639
#        67022
#        76439
#        85854
#        86340
#        96744
#        97311
#        108614
#        109472
#        120167
#        130025
#        138813
#
# Disc length: 1994 seconds
#
# Revision: 0
# Processed by: cddbd v1.5.2PL0 Copyright (c) Steve Scherf et al.
# Submitted via: ExactAudioCopy v0.95b3
#
DISCID=0807c814
DTITLE=The Beatles   - Way Beyond Compare - Episode 07 Studios and Playh
DTITLE=ouse (1 January-4 September, 1962)  FLAC
DYEAR=1900
DGENRE=
TTITLE0=Searchin' (mono)
TTITLE1=Intro
TTITLE2=Dream Baby (How Long Must I Dream)
TTITLE3=Intro
TTITLE4=Memphis, Tennessee
TTITLE5=Intro
TTITLE6=Please Mr Postman
TTITLE7=Besame Mucho (mono)
TTITLE8=Love Me Do (mono)
TTITLE9=Sweet Georgia Brown (mono)
TTITLE10=Sweet Georgia Brown (stereo)
TTITLE11=Intro
TTITLE12=Ask Me Why
TTITLE13=Intro
TTITLE14=Besame Mucho
TTITLE15=Intro
TTITLE16=A Picture Of You
TTITLE17=Some Other Guy [Grenada-TV]
TTITLE18=How Do You Do It - RM from take 2
TTITLE19=Love Me Do - RM from unknown take
EXTD=
EXTT0=
EXTT1=
EXTT2=
EXTT3=
EXTT4=
EXTT5=
EXTT6=
EXTT7=
EXTT8=
EXTT9=
EXTT10=
EXTT11=
EXTT12=
EXTT13=
EXTT14=
EXTT15=
EXTT16=
EXTT17=
EXTT18=
EXTT19=
PLAYORDER=
